<svg width="512" height="512" viewBox="0 0 512 512" fill="none" xmlns="http://www.w3.org/2000/svg">
<path d="M105.547 74.3662C147.95 39.0114 203.18 19.1227 258.437 20.2995C325.875 20.1185 392.188 51.7231 435.625 103.126C520.055 202.337 508.041 351.217 408.843 435.647C376.401 463.245 337.091 481.544 295.087 488.602C253.082 495.66 209.951 491.214 170.27 475.735C150.148 467.813 131.181 457.227 113.875 444.26C117.987 413.302 133.272 384.089 155.592 362.339C180.13 338.325 212.481 323.928 246.747 321.772C255.799 320.932 264.851 321.669 273.968 321.242C309.01 320.365 343.674 328.647 374.536 345.269C378.687 347.454 384.17 349.782 384.429 355.252C385.127 362.261 377.717 365.274 373.411 369.27C384.662 368.856 395.149 363.696 404.667 358.058C413.719 352.886 416.408 339.062 409.089 331.303C396.649 317.44 383.226 304.535 370.592 290.827C367.113 286.948 362.29 283.56 361.307 278.038C350.2 236.383 323.609 200.54 286.964 177.831C264.631 163.49 238.613 155.253 212.245 152.796C155.657 145.878 98.2021 147.947 42.0146 157.283C56.1359 125.148 78.6755 96.9835 105.547 74.3662Z" fill="white"/>
<path d="M280.032 218.152C283.842 220.898 287.345 224.046 290.481 227.54C301.913 238.946 313.396 250.3 324.737 261.809C327.166 264.045 329.335 266.548 331.203 269.27C322.28 269.581 313.357 269.477 304.447 269.27C299.068 257.632 292.951 246.304 287.365 234.743C284.791 229.273 281.533 224.062 280.032 218.152Z" fill="white"/>
<path d="M243.449 0.307352C281.705 -1.56941 319.893 5.16689 355.198 20.0193C390.503 34.8716 422.022 57.4611 447.431 86.121C541.262 191.733 531.706 353.416 426.081 447.247C410.606 460.996 393.519 472.816 375.196 482.447C311.249 516.625 232.612 521.241 164.981 495.223C122.796 479.14 85.6077 452.2 57.1797 417.127C28.7518 382.055 10.0927 340.096 3.09069 295.495C-6.72434 233.76 7.04775 168.572 41.4844 116.381C73.1036 67.8918 120.183 31.5127 175.08 13.1484C197.193 5.82879 220.188 1.50991 243.449 0.307352ZM105.547 74.3662C78.6755 96.9835 56.1358 125.148 42.0146 157.361C98.2021 148.024 155.657 145.955 212.245 152.874C238.613 155.331 264.631 163.568 286.964 177.909C323.609 200.617 350.2 236.46 361.307 278.116C362.29 283.637 367.113 286.961 370.592 290.905C383.2 304.612 396.649 317.518 409.089 331.381C416.408 339.139 413.77 352.95 404.667 358.136C395.149 363.774 384.661 368.934 373.411 369.347C377.717 365.352 385.127 362.339 384.429 355.33C384.17 349.86 378.687 347.571 374.536 345.347C343.677 328.701 309.006 320.401 273.955 321.268C264.903 321.695 255.85 320.958 246.798 321.798C212.533 323.954 180.182 338.351 155.644 362.364C133.324 384.089 118.039 413.328 113.927 444.286C131.232 457.253 150.2 467.839 170.321 475.761C291.723 523.052 428.486 462.959 475.764 341.545C491.214 301.885 495.645 258.783 488.588 216.809C481.53 174.835 463.247 135.553 435.676 103.126C392.239 51.7102 325.914 20.1185 258.514 20.3642C203.258 19.1874 148.027 39.0761 105.625 74.4309L105.547 74.3662ZM280.071 218.217C281.571 224.126 284.83 229.338 287.429 234.795C293.016 246.356 299.068 257.658 304.512 269.322C313.422 269.542 322.344 269.645 331.267 269.322C329.4 266.599 327.231 264.096 324.801 261.861C313.46 250.352 301.977 238.998 290.546 227.592C287.394 224.073 283.869 220.908 280.032 218.152L280.071 218.217Z" fill="#4F46E5"/>
</svg>
